<svg xmlns="http://www.w3.org/2000/svg" width="1000mm" height="1000mm" viewBox="0 0 1000 1000">
  <path fill="#fff" d="M326.484 250.045c-32.748-.592-66.34 4.636-96.862 16.522-27.436 10.685-53.62 26.874-74.184 47.947-21.666 22.202-37.866 50.263-48.592 79.372C94.409 427.636 89.995 464.5 90 500.47c.005 37.283 5.831 78.724 17.493 110.472 11.663 31.533 26.913 56.405 48.593 78.076 20.684 20.676 47.075 36.194 74.508 46.327 30.228 11.165 63.358 13.573 95.566 14.578 17.012.532 34.064-1.78 50.86-4.535 14.577-2.39 28.97-6.01 43.085-10.367 12.801-3.95 25.201-9.127 37.578-14.254 10.94-4.532 20.517-9.395 32.395-14.579v-75.16h-4.535c-23.54 21.166-47.993 36.808-75.804 47.623-27.42 10.663-57.4 15.788-86.82 15.874-21.711.064-44.013-3.198-64.141-11.338-19.686-7.962-37.686-19.654-52.804-35.636-14.47-15.335-26.348-35.205-35.635-59.61-9.07-24.406-13.438-57.964-13.605-87.47-.164-28.803 2.98-58.278 12.31-85.528 7.645-22.328 19.111-44.09 34.987-61.553 14.288-15.717 32.557-28.42 52.155-36.608 20.658-8.63 43.698-11.988 66.086-11.987 28.425.003 57.301 5.213 83.903 15.227 30.705 11.557 60.734 27.917 84.393 50.646 28.904 27.768 48.34 64.539 65.959 100.54 41.809 85.429 92.37 269.968 92.37 269.968h85.522L910 258.792h-65.438L693.277 683.187l-78.78-220.35s-36.169-81.586-65.214-114.557c-26.344-29.905-59.3-55.364-95.617-71.78-39.458-17.835-83.888-25.673-127.182-26.455z" />
</svg>
